<mxfile host="app.diagrams.net" agent="Mozilla/5.0 (Windows NT 10.0; Win64; x64) AppleWebKit/537.36 (KHTML, like Gecko) Chrome/131.0.0.0 Safari/537.36" version="25.0.0">
  <diagram name="Page-1" id="929967ad-93f9-6ef4-fab6-5d389245f69c">
    <mxGraphModel dx="1247" dy="678" grid="1" gridSize="10" guides="1" tooltips="1" connect="1" arrows="1" fold="1" page="1" pageScale="1.5" pageWidth="1169" pageHeight="826" background="none" math="0" shadow="0">
      <root>
        <mxCell id="0" style=";html=1;" />
        <mxCell id="1" style=";html=1;" parent="0" />
        <mxCell id="fXVhj7-4MawPFn7oTSc8-27" style="edgeStyle=orthogonalEdgeStyle;rounded=1;orthogonalLoop=1;jettySize=auto;html=1;entryX=0;entryY=0.5;entryDx=0;entryDy=0;curved=0;exitX=1;exitY=0.25;exitDx=0;exitDy=0;" edge="1" parent="1" source="fXVhj7-4MawPFn7oTSc8-2" target="fXVhj7-4MawPFn7oTSc8-3">
          <mxGeometry relative="1" as="geometry" />
        </mxCell>
        <mxCell id="fXVhj7-4MawPFn7oTSc8-30" style="edgeStyle=orthogonalEdgeStyle;rounded=1;orthogonalLoop=1;jettySize=auto;html=1;entryX=0;entryY=0.5;entryDx=0;entryDy=0;curved=0;" edge="1" parent="1" source="fXVhj7-4MawPFn7oTSc8-2" target="fXVhj7-4MawPFn7oTSc8-4">
          <mxGeometry relative="1" as="geometry" />
        </mxCell>
        <mxCell id="fXVhj7-4MawPFn7oTSc8-32" style="edgeStyle=orthogonalEdgeStyle;rounded=1;orthogonalLoop=1;jettySize=auto;html=1;exitX=1;exitY=0.75;exitDx=0;exitDy=0;entryX=0;entryY=0.5;entryDx=0;entryDy=0;curved=0;" edge="1" parent="1" source="fXVhj7-4MawPFn7oTSc8-2" target="fXVhj7-4MawPFn7oTSc8-5">
          <mxGeometry relative="1" as="geometry">
            <Array as="points">
              <mxPoint x="970" y="347" />
              <mxPoint x="970" y="595" />
            </Array>
          </mxGeometry>
        </mxCell>
        <mxCell id="fXVhj7-4MawPFn7oTSc8-34" style="edgeStyle=orthogonalEdgeStyle;rounded=0;orthogonalLoop=1;jettySize=auto;html=1;startArrow=block;startFill=1;endArrow=none;endFill=0;strokeWidth=3;dashed=1;endSize=4;startSize=3;strokeColor=#5C5C5C;" edge="1" parent="1" source="fXVhj7-4MawPFn7oTSc8-2">
          <mxGeometry relative="1" as="geometry">
            <mxPoint x="590" y="314.9999999999999" as="targetPoint" />
          </mxGeometry>
        </mxCell>
        <mxCell id="fXVhj7-4MawPFn7oTSc8-35" value="Entry point" style="edgeLabel;html=1;align=center;verticalAlign=middle;resizable=0;points=[];" vertex="1" connectable="0" parent="fXVhj7-4MawPFn7oTSc8-34">
          <mxGeometry x="0.4725" y="1" relative="1" as="geometry">
            <mxPoint x="16" y="-16" as="offset" />
          </mxGeometry>
        </mxCell>
        <mxCell id="fXVhj7-4MawPFn7oTSc8-2" value="main.py" style="swimlane;whiteSpace=wrap;html=1;fillColor=#d5e8d4;strokeColor=#82b366;" vertex="1" parent="1">
          <mxGeometry x="680" y="250" width="240" height="130" as="geometry">
            <mxRectangle x="670" y="370" width="80" height="30" as="alternateBounds" />
          </mxGeometry>
        </mxCell>
        <mxCell id="fXVhj7-4MawPFn7oTSc8-23" value="Status&amp;nbsp;&lt;span style=&quot;background-color: initial;&quot;&gt;(enum)&lt;/span&gt;" style="text;html=1;align=center;verticalAlign=middle;resizable=0;points=[];autosize=1;strokeColor=#d6b656;fillColor=#fff2cc;rounded=1;strokeWidth=2;glass=1;" vertex="1" parent="fXVhj7-4MawPFn7oTSc8-2">
          <mxGeometry x="70" y="40" width="100" height="30" as="geometry" />
        </mxCell>
        <mxCell id="fXVhj7-4MawPFn7oTSc8-24" value="QRCodeCommunication (class)" style="text;html=1;align=center;verticalAlign=middle;resizable=0;points=[];autosize=1;strokeColor=#6c8ebf;fillColor=#dae8fc;rounded=1;strokeWidth=2;glass=1;" vertex="1" parent="fXVhj7-4MawPFn7oTSc8-2">
          <mxGeometry x="25" y="85" width="190" height="30" as="geometry" />
        </mxCell>
        <mxCell id="fXVhj7-4MawPFn7oTSc8-3" value="protocol.py" style="swimlane;whiteSpace=wrap;html=1;fillColor=#dae8fc;strokeColor=#6c8ebf;gradientColor=none;" vertex="1" parent="1">
          <mxGeometry x="1100" y="160" width="200" height="180" as="geometry" />
        </mxCell>
        <mxCell id="fXVhj7-4MawPFn7oTSc8-14" value="RequestType (enum)" style="text;html=1;align=center;verticalAlign=middle;resizable=0;points=[];autosize=1;strokeColor=#d6b656;fillColor=#fff2cc;rounded=1;strokeWidth=2;glass=1;" vertex="1" parent="fXVhj7-4MawPFn7oTSc8-3">
          <mxGeometry x="30" y="40" width="140" height="30" as="geometry" />
        </mxCell>
        <mxCell id="fXVhj7-4MawPFn7oTSc8-15" value="RequestHeader (dataclass)" style="text;html=1;align=center;verticalAlign=middle;resizable=0;points=[];autosize=1;strokeColor=#6c8ebf;fillColor=#dae8fc;rounded=1;strokeWidth=2;glass=1;" vertex="1" parent="fXVhj7-4MawPFn7oTSc8-3">
          <mxGeometry x="15" y="85" width="170" height="30" as="geometry" />
        </mxCell>
        <mxCell id="fXVhj7-4MawPFn7oTSc8-16" value="calculate_hash (function)" style="text;html=1;align=center;verticalAlign=middle;resizable=0;points=[];autosize=1;strokeColor=#9673a6;fillColor=#e1d5e7;rounded=1;strokeWidth=2;glass=1;" vertex="1" parent="fXVhj7-4MawPFn7oTSc8-3">
          <mxGeometry x="20" y="130" width="160" height="30" as="geometry" />
        </mxCell>
        <mxCell id="fXVhj7-4MawPFn7oTSc8-33" style="edgeStyle=orthogonalEdgeStyle;rounded=1;orthogonalLoop=1;jettySize=auto;html=1;entryX=0.5;entryY=1;entryDx=0;entryDy=0;curved=0;dashed=1;" edge="1" parent="1" source="fXVhj7-4MawPFn7oTSc8-4" target="fXVhj7-4MawPFn7oTSc8-3">
          <mxGeometry relative="1" as="geometry" />
        </mxCell>
        <mxCell id="fXVhj7-4MawPFn7oTSc8-4" value="qr_creator.py" style="swimlane;whiteSpace=wrap;html=1;fillColor=#dae8fc;strokeColor=#6c8ebf;" vertex="1" parent="1">
          <mxGeometry x="1100" y="400" width="200" height="90" as="geometry" />
        </mxCell>
        <mxCell id="fXVhj7-4MawPFn7oTSc8-17" value="QRCodeCreator (class)" style="text;html=1;align=center;verticalAlign=middle;resizable=0;points=[];autosize=1;strokeColor=#6c8ebf;fillColor=#dae8fc;rounded=1;strokeWidth=2;glass=1;" vertex="1" parent="fXVhj7-4MawPFn7oTSc8-4">
          <mxGeometry x="25" y="40" width="150" height="30" as="geometry" />
        </mxCell>
        <mxCell id="fXVhj7-4MawPFn7oTSc8-5" value="webcam.py" style="swimlane;whiteSpace=wrap;html=1;fillColor=#dae8fc;strokeColor=#6c8ebf;" vertex="1" parent="1">
          <mxGeometry x="1100" y="550" width="200" height="90" as="geometry" />
        </mxCell>
        <mxCell id="fXVhj7-4MawPFn7oTSc8-18" value="WebcamReader (class)" style="text;html=1;align=center;verticalAlign=middle;resizable=0;points=[];autosize=1;strokeColor=#6c8ebf;fillColor=#dae8fc;rounded=1;strokeWidth=2;glass=1;" vertex="1" parent="fXVhj7-4MawPFn7oTSc8-5">
          <mxGeometry x="25" y="40" width="150" height="30" as="geometry" />
        </mxCell>
        <mxCell id="fXVhj7-4MawPFn7oTSc8-11" value="tests/" style="swimlane;whiteSpace=wrap;html=1;fillColor=#dae8fc;strokeColor=#6c8ebf;" vertex="1" parent="1">
          <mxGeometry x="720" y="430" width="120" height="160" as="geometry" />
        </mxCell>
        <mxCell id="fXVhj7-4MawPFn7oTSc8-20" value="test_flows.py" style="text;html=1;align=center;verticalAlign=middle;resizable=0;points=[];autosize=1;strokeColor=#b85450;fillColor=#f8cecc;rounded=1;strokeWidth=2;glass=1;" vertex="1" parent="fXVhj7-4MawPFn7oTSc8-11">
          <mxGeometry x="15" y="40" width="90" height="30" as="geometry" />
        </mxCell>
        <mxCell id="fXVhj7-4MawPFn7oTSc8-21" value="test_parsing.py" style="text;html=1;align=center;verticalAlign=middle;resizable=0;points=[];autosize=1;strokeColor=#b85450;fillColor=#f8cecc;rounded=1;strokeWidth=2;glass=1;" vertex="1" parent="fXVhj7-4MawPFn7oTSc8-11">
          <mxGeometry x="10" y="80" width="100" height="30" as="geometry" />
        </mxCell>
        <mxCell id="fXVhj7-4MawPFn7oTSc8-22" value="test_flows.py" style="text;html=1;align=center;verticalAlign=middle;resizable=0;points=[];autosize=1;strokeColor=#b85450;fillColor=#f8cecc;rounded=1;strokeWidth=2;glass=1;" vertex="1" parent="fXVhj7-4MawPFn7oTSc8-11">
          <mxGeometry x="15" y="120" width="90" height="30" as="geometry" />
        </mxCell>
      </root>
    </mxGraphModel>
  </diagram>
</mxfile>
